<svg id="Camada_1" data-name="Camada 1" xmlns="http://www.w3.org/2000/svg" viewBox="0 0 54 57"><defs><style>.cls-1{fill:#fff;}</style></defs><path class="cls-1" d="M10,7v4H54V7Zm0,6V27l8,6v2H10V57H32.69a16.79,16.79,0,0,1-1.33-4H14V39H30V29H50v3.07a16.52,16.52,0,0,1,4,.82V15Zm4,6h4v6H14Zm8,0h4v6H22Zm8,0h4v6H30Zm8,0h4v6H38Zm8,0h4v6H46ZM22,29h4v6H22Zm12,4v6h.5A18.13,18.13,0,0,1,38,35.5V33Zm15,1A15,15,0,1,0,64,49,15,15,0,0,0,49,34Zm0,7a3,3,0,0,1,3,3.06v.44c0,1.69-1.29,3.5-3,3.5s-3-1.81-3-3.5v-.44A3,3,0,0,1,49,41ZM18,43v6h4V43Zm8,0v6h4V43Zm23,7a18.3,18.3,0,0,1,5.58.94,1.75,1.75,0,0,1,1.16,1.32L56,53.6a8.91,8.91,0,0,1-14,0l.26-1.35a1.75,1.75,0,0,1,1.17-1.32A18.16,18.16,0,0,1,49,50Z" transform="translate(-10 -7)"/></svg>