<svg id="Camada_1" data-name="Camada 1" xmlns="http://www.w3.org/2000/svg" viewBox="0 0 36.92 36.92"><defs><style>.cls-1{fill:#fff;}.cls-2{fill:#707070;}</style></defs><path class="cls-1" d="M18.46,0h0A18.45,18.45,0,0,1,36.92,18.46h0A18.45,18.45,0,0,1,18.46,36.92h0A18.45,18.45,0,0,1,0,18.46H0A18.45,18.45,0,0,1,18.46,0Z"/><path class="cls-2" d="M18.46,5.46a5.66,5.66,0,0,0-6,6,9.23,9.23,0,0,0,3,6.81v1.38a1.24,1.24,0,0,1-.91,1.22c-3.89,1.2-7.09,3.78-7.09,5.28V28c0,1.9,4.9,3.5,11,3.5s11-1.6,11-3.5V26.15c0-1.4-3.09-4.08-7.09-5.28a1.34,1.34,0,0,1-.91-1.22V18.27a9.23,9.23,0,0,0,3-6.81A5.66,5.66,0,0,0,18.46,5.46Z"/></svg>